<svg width="248" height="158" viewBox="0 0 248 158" fill="none" xmlns="http://www.w3.org/2000/svg">
<rect width="248" height="158" fill="#F6F6F7"/>
<rect x="10" y="10" width="138" height="95" rx="4" fill="#C7C8CC"/>
<rect x="10" y="111" width="30" height="30" rx="4" fill="#C7C8CC"/>
<rect x="46" y="111" width="30" height="30" rx="4" fill="#C7C8CC"/>
<rect x="82" y="111" width="30" height="30" rx="4" fill="#C7C8CC"/>
<rect x="118" y="111" width="30" height="30" rx="4" fill="#C7C8CC"/>
<rect x="154" y="38" width="86" height="8" rx="4" fill="#C7C8CC"/>
<rect x="154" y="52" width="44" height="8" rx="4" fill="#C7C8CC"/>
<rect x="154" y="97" width="20" height="8" rx="4" fill="#C7C8CC"/>
<rect x="154" y="76" width="86" height="15" rx="4" fill="#C7C8CC"/>
<rect x="180" y="97" width="20" height="8" rx="4" fill="#C7C8CC"/>
<rect x="206" y="97" width="20" height="8" rx="4" fill="#C7C8CC"/>
<rect width="248" height="28" fill="#0D9276"/>
</svg>
