<svg width="248" height="158" viewBox="0 0 248 158" fill="none" xmlns="http://www.w3.org/2000/svg">
<rect width="248" height="158" fill="#F6F6F7"/>
<rect x="162" y="9" width="20" height="8" rx="4" fill="#C7C8CC"/>
<rect x="9" y="9" width="35" height="8" rx="4" fill="#C7C8CC"/>
<rect x="188" y="9" width="20" height="8" rx="4" fill="#C7C8CC"/>
<rect x="214" y="9" width="20" height="8" rx="4" fill="#C7C8CC"/>
<rect x="11" y="29" width="226" height="25" rx="4" fill="#0D9276"/>
<path fill-rule="evenodd" clip-rule="evenodd" d="M143.2 124.2C139.701 124.2 136.8 127.101 136.8 130.6C136.8 134.099 139.701 137 143.2 137C146.699 137 149.6 134.099 149.6 130.6C149.6 127.101 146.699 124.2 143.2 124.2ZM92 73V79.4H98.4L109.92 103.72L105.44 111.4C105.099 112.381 104.8 113.619 104.8 114.6C104.8 118.099 107.701 121 111.2 121H149.6V114.6H112.48C112.181 114.6 111.84 114.301 111.84 113.96V113.661L114.741 108.243H138.421C140.981 108.243 142.901 106.963 143.84 105.043L155.36 84.264C156 83.5813 156 83.24 156 82.6C156 80.68 154.72 79.4 152.8 79.4H105.44L102.539 73H92ZM111.2 124.2C107.701 124.2 104.8 127.101 104.8 130.6C104.8 134.099 107.701 137 111.2 137C114.699 137 117.6 134.099 117.6 130.6C117.6 127.101 114.699 124.2 111.2 124.2Z" fill="#C7C8CC"/>
</svg>
